<mxfile host="drawio-plugin" modified="2024-03-08T14:38:01.165Z" agent="5.0 (Macintosh; Intel Mac OS X 10_15_7) AppleWebKit/537.36 (KHTML, like Gecko) Chrome/111.0.0.0 Safari/537.36" etag="w9KWaBA_fLGsSkoJ1PaU" version="20.5.3" type="embed"><diagram id="23iRSUPoRavnBvh4doch" name="Page-1"><mxGraphModel dx="2800" dy="3365" grid="0" gridSize="10" guides="1" tooltips="1" connect="1" arrows="1" fold="1" page="0" pageScale="1" pageWidth="1169" pageHeight="827" math="0" shadow="0"><root><mxCell id="0"/><mxCell id="1" parent="0"/><mxCell id="177" style="edgeStyle=orthogonalEdgeStyle;rounded=0;orthogonalLoop=1;jettySize=auto;html=1;exitX=0.25;exitY=0;exitDx=0;exitDy=0;entryX=0;entryY=0.5;entryDx=0;entryDy=0;" parent="1" source="2" target="162" edge="1"><mxGeometry relative="1" as="geometry"/></mxCell><mxCell id="2" value="Patient" style="swimlane;fontStyle=1;align=center;verticalAlign=top;childLayout=stackLayout;horizontal=1;startSize=26;horizontalStack=0;resizeParent=1;resizeParentMax=0;resizeLast=0;collapsible=1;marginBottom=0;whiteSpace=wrap;html=1;hachureGap=4;fontFamily=Helvetica;fontSize=14;rounded=1;curveFitting=1;jiggle=2;" parent="1" vertex="1"><mxGeometry x="84" y="-1170" width="306" height="242" as="geometry"><mxRectangle x="685" y="-1349" width="98" height="36" as="alternateBounds"/></mxGeometry></mxCell><mxCell id="3" value="+ id: ObjectId" style="text;strokeColor=none;fillColor=none;align=left;verticalAlign=top;spacingLeft=4;spacingRight=4;overflow=hidden;rotatable=0;points=[[0,0.5],[1,0.5]];portConstraint=eastwest;whiteSpace=wrap;html=1;fontSize=14;fontFamily=Helvetica;curveFitting=1;jiggle=2;rounded=1;" parent="2" vertex="1"><mxGeometry y="26" width="306" height="26" as="geometry"/></mxCell><mxCell id="4" value="&lt;span style=&quot;font-size: 14px; font-style: normal; font-variant-ligatures: normal; font-variant-caps: normal; font-weight: 400; letter-spacing: normal; orphans: 2; text-align: left; text-indent: 0px; text-transform: none; widows: 2; word-spacing: 0px; -webkit-text-stroke-width: 0px; text-decoration-thickness: initial; text-decoration-style: initial; text-decoration-color: initial; float: none; display: inline !important;&quot;&gt;+ refToDoctor: ObjectId&lt;/span&gt;" style="text;strokeColor=none;fillColor=none;align=left;verticalAlign=top;spacingLeft=4;spacingRight=4;overflow=hidden;rotatable=0;points=[[0,0.5],[1,0.5]];portConstraint=eastwest;whiteSpace=wrap;html=1;fontSize=14;fontFamily=Helvetica;labelBackgroundColor=none;fontColor=default;curveFitting=1;jiggle=2;rounded=1;" parent="2" vertex="1"><mxGeometry y="52" width="306" height="26" as="geometry"/></mxCell><mxCell id="5" value="&lt;span style=&quot;font-size: 14px; font-style: normal; font-variant-ligatures: normal; font-variant-caps: normal; font-weight: 400; letter-spacing: normal; orphans: 2; text-align: left; text-indent: 0px; text-transform: none; widows: 2; word-spacing: 0px; -webkit-text-stroke-width: 0px; text-decoration-thickness: initial; text-decoration-style: initial; text-decoration-color: initial; float: none; display: inline !important;&quot;&gt;+ name: string&lt;/span&gt;" style="text;strokeColor=none;fillColor=none;align=left;verticalAlign=top;spacingLeft=4;spacingRight=4;overflow=hidden;rotatable=0;points=[[0,0.5],[1,0.5]];portConstraint=eastwest;whiteSpace=wrap;html=1;fontSize=14;fontFamily=Helvetica;fontColor=default;labelBackgroundColor=none;curveFitting=1;jiggle=2;rounded=1;" parent="2" vertex="1"><mxGeometry y="78" width="306" height="26" as="geometry"/></mxCell><mxCell id="6" value="+ gender: string" style="text;strokeColor=none;fillColor=none;align=left;verticalAlign=top;spacingLeft=4;spacingRight=4;overflow=hidden;rotatable=0;points=[[0,0.5],[1,0.5]];portConstraint=eastwest;whiteSpace=wrap;html=1;fontSize=14;fontFamily=Helvetica;labelBackgroundColor=none;fontColor=default;curveFitting=1;jiggle=2;rounded=1;" parent="2" vertex="1"><mxGeometry y="104" width="306" height="26" as="geometry"/></mxCell><mxCell id="7" value="&lt;span style=&quot;font-size: 14px; font-style: normal; font-variant-ligatures: normal; font-variant-caps: normal; font-weight: 400; letter-spacing: normal; orphans: 2; text-align: left; text-indent: 0px; text-transform: none; widows: 2; word-spacing: 0px; -webkit-text-stroke-width: 0px; text-decoration-thickness: initial; text-decoration-style: initial; text-decoration-color: initial; float: none; display: inline !important;&quot;&gt;+ age: int&lt;/span&gt;" style="text;strokeColor=none;fillColor=none;align=left;verticalAlign=top;spacingLeft=4;spacingRight=4;overflow=hidden;rotatable=0;points=[[0,0.5],[1,0.5]];portConstraint=eastwest;whiteSpace=wrap;html=1;fontSize=14;fontFamily=Helvetica;labelBackgroundColor=none;fontColor=default;curveFitting=1;jiggle=2;rounded=1;" parent="2" vertex="1"><mxGeometry y="130" width="306" height="26" as="geometry"/></mxCell><mxCell id="8" value="&lt;span style=&quot;font-size: 14px; font-style: normal; font-variant-ligatures: normal; font-variant-caps: normal; font-weight: 400; letter-spacing: normal; orphans: 2; text-align: left; text-indent: 0px; text-transform: none; widows: 2; word-spacing: 0px; -webkit-text-stroke-width: 0px; text-decoration-thickness: initial; text-decoration-style: initial; text-decoration-color: initial; float: none; display: inline !important;&quot;&gt;+ policy: string&lt;/span&gt;" style="text;strokeColor=none;fillColor=none;align=left;verticalAlign=top;spacingLeft=4;spacingRight=4;overflow=hidden;rotatable=0;points=[[0,0.5],[1,0.5]];portConstraint=eastwest;whiteSpace=wrap;html=1;fontSize=14;fontFamily=Helvetica;labelBackgroundColor=none;fontColor=default;curveFitting=1;jiggle=2;rounded=1;" parent="2" vertex="1"><mxGeometry y="156" width="306" height="26" as="geometry"/></mxCell><mxCell id="180" value="+ phone: string" style="text;strokeColor=none;fillColor=none;align=left;verticalAlign=top;spacingLeft=4;spacingRight=4;overflow=hidden;rotatable=0;points=[[0,0.5],[1,0.5]];portConstraint=eastwest;whiteSpace=wrap;html=1;fontSize=14;fontFamily=Helvetica;labelBackgroundColor=none;fontColor=default;curveFitting=1;jiggle=2;rounded=1;" vertex="1" parent="2"><mxGeometry y="182" width="306" height="26" as="geometry"/></mxCell><mxCell id="9" value="&lt;span style=&quot;font-size: 14px; font-style: normal; font-variant-ligatures: normal; font-variant-caps: normal; font-weight: 400; letter-spacing: normal; orphans: 2; text-align: left; text-indent: 0px; text-transform: none; widows: 2; word-spacing: 0px; -webkit-text-stroke-width: 0px; text-decoration-thickness: initial; text-decoration-style: initial; text-decoration-color: initial; float: none; display: inline !important;&quot;&gt;+ InArchive: bool&lt;/span&gt;" style="text;strokeColor=none;fillColor=none;align=left;verticalAlign=top;spacingLeft=4;spacingRight=4;overflow=hidden;rotatable=0;points=[[0,0.5],[1,0.5]];portConstraint=eastwest;whiteSpace=wrap;html=1;fontSize=14;fontFamily=Helvetica;labelBackgroundColor=none;fontColor=default;curveFitting=1;jiggle=2;rounded=1;" parent="2" vertex="1"><mxGeometry y="208" width="306" height="26" as="geometry"/></mxCell><mxCell id="10" value="" style="line;strokeWidth=1;fillColor=none;align=left;verticalAlign=middle;spacingTop=-1;spacingLeft=3;spacingRight=3;rotatable=0;labelPosition=right;points=[];portConstraint=eastwest;strokeColor=inherit;hachureGap=4;fontFamily=Helvetica;fontSize=14;curveFitting=1;jiggle=2;rounded=1;" parent="2" vertex="1"><mxGeometry y="234" width="306" height="8" as="geometry"/></mxCell><mxCell id="175" style="edgeStyle=orthogonalEdgeStyle;rounded=0;orthogonalLoop=1;jettySize=auto;html=1;exitX=0.75;exitY=0;exitDx=0;exitDy=0;entryX=0;entryY=0.5;entryDx=0;entryDy=0;" parent="1" source="16" target="159" edge="1"><mxGeometry relative="1" as="geometry"/></mxCell><mxCell id="176" style="edgeStyle=orthogonalEdgeStyle;rounded=0;orthogonalLoop=1;jettySize=auto;html=1;exitX=0;exitY=0.5;exitDx=0;exitDy=0;entryX=0;entryY=0.5;entryDx=0;entryDy=0;" parent="1" source="17" target="147" edge="1"><mxGeometry relative="1" as="geometry"><Array as="points"><mxPoint x="-842" y="-1098"/><mxPoint x="-842" y="-1568"/></Array></mxGeometry></mxCell><mxCell id="178" style="edgeStyle=orthogonalEdgeStyle;rounded=0;orthogonalLoop=1;jettySize=auto;html=1;exitX=0.5;exitY=0;exitDx=0;exitDy=0;entryX=0;entryY=0.5;entryDx=0;entryDy=0;" edge="1" parent="1" source="16" target="139"><mxGeometry relative="1" as="geometry"/></mxCell><mxCell id="16" value="Doctor" style="swimlane;fontStyle=1;align=center;verticalAlign=top;childLayout=stackLayout;horizontal=1;startSize=26;horizontalStack=0;resizeParent=1;resizeParentMax=0;resizeLast=0;collapsible=1;marginBottom=0;whiteSpace=wrap;html=1;hachureGap=4;fontFamily=Helvetica;fontSize=14;rounded=1;curveFitting=1;jiggle=2;" parent="1" vertex="1"><mxGeometry x="-276" y="-1137" width="284" height="138" as="geometry"><mxRectangle x="164" y="-1317" width="102" height="36" as="alternateBounds"/></mxGeometry></mxCell><mxCell id="17" value="+ id: ObjectId" style="text;strokeColor=none;fillColor=none;align=left;verticalAlign=top;spacingLeft=4;spacingRight=4;overflow=hidden;rotatable=0;points=[[0,0.5],[1,0.5]];portConstraint=eastwest;whiteSpace=wrap;html=1;fontSize=14;fontFamily=Helvetica;curveFitting=1;jiggle=2;rounded=1;" parent="16" vertex="1"><mxGeometry y="26" width="284" height="26" as="geometry"/></mxCell><mxCell id="18" value="&lt;span style=&quot;font-size: 14px; font-style: normal; font-variant-ligatures: normal; font-variant-caps: normal; font-weight: 400; letter-spacing: normal; orphans: 2; text-align: left; text-indent: 0px; text-transform: none; widows: 2; word-spacing: 0px; -webkit-text-stroke-width: 0px; text-decoration-thickness: initial; text-decoration-style: initial; text-decoration-color: initial; float: none; display: inline !important;&quot;&gt;+ name: string&lt;/span&gt;" style="text;strokeColor=none;fillColor=none;align=left;verticalAlign=top;spacingLeft=4;spacingRight=4;overflow=hidden;rotatable=0;points=[[0,0.5],[1,0.5]];portConstraint=eastwest;whiteSpace=wrap;html=1;fontSize=14;fontFamily=Helvetica;fontColor=default;labelBackgroundColor=none;curveFitting=1;jiggle=2;rounded=1;" parent="16" vertex="1"><mxGeometry y="52" width="284" height="26" as="geometry"/></mxCell><mxCell id="19" value="+ login: string" style="text;strokeColor=none;fillColor=none;align=left;verticalAlign=top;spacingLeft=4;spacingRight=4;overflow=hidden;rotatable=0;points=[[0,0.5],[1,0.5]];portConstraint=eastwest;whiteSpace=wrap;html=1;fontSize=14;fontFamily=Helvetica;labelBackgroundColor=none;fontColor=default;curveFitting=1;jiggle=2;rounded=1;" parent="16" vertex="1"><mxGeometry y="78" width="284" height="26" as="geometry"/></mxCell><mxCell id="20" value="&lt;span style=&quot;font-size: 14px; font-style: normal; font-variant-ligatures: normal; font-variant-caps: normal; font-weight: 400; letter-spacing: normal; orphans: 2; text-align: left; text-indent: 0px; text-transform: none; widows: 2; word-spacing: 0px; -webkit-text-stroke-width: 0px; text-decoration-thickness: initial; text-decoration-style: initial; text-decoration-color: initial; float: none; display: inline !important;&quot;&gt;+ password: string&lt;/span&gt;" style="text;strokeColor=none;fillColor=none;align=left;verticalAlign=top;spacingLeft=4;spacingRight=4;overflow=hidden;rotatable=0;points=[[0,0.5],[1,0.5]];portConstraint=eastwest;whiteSpace=wrap;html=1;fontSize=14;fontFamily=Helvetica;labelBackgroundColor=none;fontColor=default;curveFitting=1;jiggle=2;rounded=1;" parent="16" vertex="1"><mxGeometry y="104" width="284" height="26" as="geometry"/></mxCell><mxCell id="22" value="" style="line;strokeWidth=1;fillColor=none;align=left;verticalAlign=middle;spacingTop=-1;spacingLeft=3;spacingRight=3;rotatable=0;labelPosition=right;points=[];portConstraint=eastwest;strokeColor=inherit;hachureGap=4;fontFamily=Helvetica;fontSize=14;curveFitting=1;jiggle=2;rounded=1;" parent="16" vertex="1"><mxGeometry y="130" width="284" height="8" as="geometry"/></mxCell><mxCell id="173" style="edgeStyle=orthogonalEdgeStyle;rounded=0;orthogonalLoop=1;jettySize=auto;html=1;exitX=0.75;exitY=0;exitDx=0;exitDy=0;entryX=0;entryY=0.5;entryDx=0;entryDy=0;" parent="1" source="25" target="167" edge="1"><mxGeometry relative="1" as="geometry"/></mxCell><mxCell id="25" value="Diagnosys" style="swimlane;fontStyle=1;align=center;verticalAlign=top;childLayout=stackLayout;horizontal=1;startSize=26;horizontalStack=0;resizeParent=1;resizeParentMax=0;resizeLast=0;collapsible=1;marginBottom=0;whiteSpace=wrap;html=1;hachureGap=4;fontFamily=Helvetica;fontSize=14;rounded=1;curveFitting=1;jiggle=2;" parent="1" vertex="1"><mxGeometry x="-794" y="-1459" width="300" height="138" as="geometry"><mxRectangle x="1370" y="-1166" width="124" height="36" as="alternateBounds"/></mxGeometry></mxCell><mxCell id="26" value="+ id: ObjectId" style="text;strokeColor=none;fillColor=none;align=left;verticalAlign=top;spacingLeft=4;spacingRight=4;overflow=hidden;rotatable=0;points=[[0,0.5],[1,0.5]];portConstraint=eastwest;whiteSpace=wrap;html=1;fontSize=14;fontFamily=Helvetica;curveFitting=1;jiggle=2;rounded=1;" parent="25" vertex="1"><mxGeometry y="26" width="300" height="26" as="geometry"/></mxCell><mxCell id="27" value="&lt;span style=&quot;font-size: 14px; font-style: normal; font-variant-ligatures: normal; font-variant-caps: normal; font-weight: 400; letter-spacing: normal; orphans: 2; text-align: left; text-indent: 0px; text-transform: none; widows: 2; word-spacing: 0px; -webkit-text-stroke-width: 0px; text-decoration-thickness: initial; text-decoration-style: initial; text-decoration-color: initial; float: none; display: inline !important;&quot;&gt;+ refToPatient:&amp;nbsp;&lt;/span&gt;ObjectId" style="text;strokeColor=none;fillColor=none;align=left;verticalAlign=top;spacingLeft=4;spacingRight=4;overflow=hidden;rotatable=0;points=[[0,0.5],[1,0.5]];portConstraint=eastwest;whiteSpace=wrap;html=1;fontSize=14;fontFamily=Helvetica;labelBackgroundColor=none;fontColor=default;curveFitting=1;jiggle=2;rounded=1;" parent="25" vertex="1"><mxGeometry y="52" width="300" height="26" as="geometry"/></mxCell><mxCell id="28" value="+ disease: string" style="text;strokeColor=none;fillColor=none;align=left;verticalAlign=top;spacingLeft=4;spacingRight=4;overflow=hidden;rotatable=0;points=[[0,0.5],[1,0.5]];portConstraint=eastwest;whiteSpace=wrap;html=1;fontSize=14;fontFamily=Helvetica;curveFitting=1;jiggle=2;rounded=1;" parent="25" vertex="1"><mxGeometry y="78" width="300" height="26" as="geometry"/></mxCell><mxCell id="29" value="&lt;span style=&quot;font-size: 14px; font-style: normal; font-variant-ligatures: normal; font-variant-caps: normal; font-weight: 400; letter-spacing: normal; orphans: 2; text-align: left; text-indent: 0px; text-transform: none; widows: 2; word-spacing: 0px; -webkit-text-stroke-width: 0px; text-decoration-thickness: initial; text-decoration-style: initial; text-decoration-color: initial; float: none; display: inline !important;&quot;&gt;+ text: string&lt;/span&gt;" style="text;strokeColor=none;fillColor=none;align=left;verticalAlign=top;spacingLeft=4;spacingRight=4;overflow=hidden;rotatable=0;points=[[0,0.5],[1,0.5]];portConstraint=eastwest;whiteSpace=wrap;html=1;fontSize=14;fontFamily=Helvetica;labelBackgroundColor=none;fontColor=default;curveFitting=1;jiggle=2;rounded=1;" parent="25" vertex="1"><mxGeometry y="104" width="300" height="26" as="geometry"/></mxCell><mxCell id="30" value="" style="line;strokeWidth=1;fillColor=none;align=left;verticalAlign=middle;spacingTop=-1;spacingLeft=3;spacingRight=3;rotatable=0;labelPosition=right;points=[];portConstraint=eastwest;strokeColor=inherit;hachureGap=4;fontFamily=Helvetica;fontSize=14;curveFitting=1;jiggle=2;rounded=1;" parent="25" vertex="1"><mxGeometry y="130" width="300" height="8" as="geometry"/></mxCell><mxCell id="33" style="edgeStyle=orthogonalEdgeStyle;rounded=1;hachureGap=4;orthogonalLoop=1;jettySize=auto;html=1;exitX=0.5;exitY=0;exitDx=0;exitDy=0;entryX=0;entryY=0.5;entryDx=0;entryDy=0;fontFamily=Helvetica;fontSize=14;startSize=8;endSize=8;endArrow=block;endFill=0;curveFitting=1;jiggle=2;" parent="1" source="34" target="86" edge="1"><mxGeometry relative="1" as="geometry"/></mxCell><mxCell id="34" value="Cardiac ultrasound" style="swimlane;fontStyle=1;align=center;verticalAlign=top;childLayout=stackLayout;horizontal=1;startSize=26;horizontalStack=0;resizeParent=1;resizeParentMax=0;resizeLast=0;collapsible=1;marginBottom=0;whiteSpace=wrap;html=1;hachureGap=4;fontFamily=Helvetica;fontSize=14;rounded=1;strokeColor=#992E2E;curveFitting=1;jiggle=2;" parent="1" vertex="1"><mxGeometry x="589" y="-637" width="265" height="138" as="geometry"><mxRectangle x="636.5" y="-653" width="209" height="36" as="alternateBounds"/></mxGeometry></mxCell><mxCell id="35" value="+ id: ObjectId" style="text;strokeColor=none;fillColor=none;align=left;verticalAlign=top;spacingLeft=4;spacingRight=4;overflow=hidden;rotatable=0;points=[[0,0.5],[1,0.5]];portConstraint=eastwest;whiteSpace=wrap;html=1;fontSize=14;fontFamily=Helvetica;curveFitting=1;jiggle=2;rounded=1;" parent="34" vertex="1"><mxGeometry y="26" width="265" height="26" as="geometry"/></mxCell><mxCell id="37" value="+ dateTimetime: DateTime" style="text;strokeColor=none;fillColor=none;align=left;verticalAlign=top;spacingLeft=4;spacingRight=4;overflow=hidden;rotatable=0;points=[[0,0.5],[1,0.5]];portConstraint=eastwest;whiteSpace=wrap;html=1;fontSize=14;fontFamily=Helvetica;curveFitting=1;jiggle=2;rounded=1;" parent="34" vertex="1"><mxGeometry y="52" width="265" height="26" as="geometry"/></mxCell><mxCell id="38" value="+ description: string" style="text;strokeColor=none;fillColor=none;align=left;verticalAlign=top;spacingLeft=4;spacingRight=4;overflow=hidden;rotatable=0;points=[[0,0.5],[1,0.5]];portConstraint=eastwest;whiteSpace=wrap;html=1;fontSize=14;fontFamily=Helvetica;curveFitting=1;jiggle=2;rounded=1;" parent="34" vertex="1"><mxGeometry y="78" width="265" height="26" as="geometry"/></mxCell><mxCell id="39" value="" style="line;strokeWidth=1;fillColor=none;align=left;verticalAlign=middle;spacingTop=-1;spacingLeft=3;spacingRight=3;rotatable=0;labelPosition=right;points=[];portConstraint=eastwest;strokeColor=inherit;hachureGap=4;fontFamily=Helvetica;fontSize=14;curveFitting=1;jiggle=2;rounded=1;" parent="34" vertex="1"><mxGeometry y="104" width="265" height="8" as="geometry"/></mxCell><mxCell id="40" value="+ Change()" style="text;strokeColor=none;fillColor=none;align=left;verticalAlign=top;spacingLeft=4;spacingRight=4;overflow=hidden;rotatable=0;points=[[0,0.5],[1,0.5]];portConstraint=eastwest;whiteSpace=wrap;html=1;fontSize=14;fontFamily=Helvetica;curveFitting=1;jiggle=2;rounded=1;" parent="34" vertex="1"><mxGeometry y="112" width="265" height="26" as="geometry"/></mxCell><mxCell id="41" style="edgeStyle=orthogonalEdgeStyle;rounded=1;hachureGap=4;orthogonalLoop=1;jettySize=auto;html=1;exitX=0.5;exitY=0;exitDx=0;exitDy=0;entryX=0.5;entryY=1;entryDx=0;entryDy=0;fontFamily=Helvetica;fontSize=14;startSize=8;endSize=8;endArrow=block;endFill=0;curveFitting=1;jiggle=2;" parent="1" source="42" target="86" edge="1"><mxGeometry relative="1" as="geometry"/></mxCell><mxCell id="42" value="ECG" style="swimlane;fontStyle=1;align=center;verticalAlign=top;childLayout=stackLayout;horizontal=1;startSize=26;horizontalStack=0;resizeParent=1;resizeParentMax=0;resizeLast=0;collapsible=1;marginBottom=0;whiteSpace=wrap;html=1;hachureGap=4;fontFamily=Helvetica;fontSize=14;rounded=1;curveFitting=1;jiggle=2;" parent="1" vertex="1"><mxGeometry x="924.5" y="-637" width="300" height="190" as="geometry"><mxRectangle x="958.5" y="-653" width="75" height="36" as="alternateBounds"/></mxGeometry></mxCell><mxCell id="43" value="+ id: ObjectId" style="text;strokeColor=none;fillColor=none;align=left;verticalAlign=top;spacingLeft=4;spacingRight=4;overflow=hidden;rotatable=0;points=[[0,0.5],[1,0.5]];portConstraint=eastwest;whiteSpace=wrap;html=1;fontSize=14;fontFamily=Helvetica;curveFitting=1;jiggle=2;rounded=1;" parent="42" vertex="1"><mxGeometry y="26" width="300" height="26" as="geometry"/></mxCell><mxCell id="44" value="&lt;span style=&quot;font-size: 14px; font-style: normal; font-variant-ligatures: normal; font-variant-caps: normal; font-weight: 400; letter-spacing: normal; orphans: 2; text-align: left; text-indent: 0px; text-transform: none; widows: 2; word-spacing: 0px; -webkit-text-stroke-width: 0px; text-decoration-thickness: initial; text-decoration-style: initial; text-decoration-color: initial; float: none; display: inline !important;&quot;&gt;+ refToPatient:&amp;nbsp;&lt;/span&gt;ObjectId" style="text;strokeColor=none;fillColor=none;align=left;verticalAlign=top;spacingLeft=4;spacingRight=4;overflow=hidden;rotatable=0;points=[[0,0.5],[1,0.5]];portConstraint=eastwest;whiteSpace=wrap;html=1;fontSize=14;fontFamily=Helvetica;labelBackgroundColor=none;fontColor=default;curveFitting=1;jiggle=2;rounded=1;" parent="42" vertex="1"><mxGeometry y="52" width="300" height="26" as="geometry"/></mxCell><mxCell id="45" value="+ dateTime: DateTime" style="text;strokeColor=none;fillColor=none;align=left;verticalAlign=top;spacingLeft=4;spacingRight=4;overflow=hidden;rotatable=0;points=[[0,0.5],[1,0.5]];portConstraint=eastwest;whiteSpace=wrap;html=1;fontSize=14;fontFamily=Helvetica;curveFitting=1;jiggle=2;rounded=1;" parent="42" vertex="1"><mxGeometry y="78" width="300" height="26" as="geometry"/></mxCell><mxCell id="46" value="&lt;span style=&quot;font-size: 14px; font-style: normal; font-variant-ligatures: normal; font-variant-caps: normal; font-weight: 400; letter-spacing: normal; orphans: 2; text-align: left; text-indent: 0px; text-transform: none; widows: 2; word-spacing: 0px; -webkit-text-stroke-width: 0px; text-decoration-thickness: initial; text-decoration-style: initial; text-decoration-color: initial; float: none; display: inline !important;&quot;&gt;+ urlToScan: url&lt;/span&gt;" style="text;strokeColor=none;fillColor=none;align=left;verticalAlign=top;spacingLeft=4;spacingRight=4;overflow=hidden;rotatable=0;points=[[0,0.5],[1,0.5]];portConstraint=eastwest;whiteSpace=wrap;html=1;fontSize=14;fontFamily=Helvetica;labelBackgroundColor=none;fontColor=default;curveFitting=1;jiggle=2;rounded=1;" parent="42" vertex="1"><mxGeometry y="104" width="300" height="26" as="geometry"/></mxCell><mxCell id="47" value="+ description: string" style="text;strokeColor=none;fillColor=none;align=left;verticalAlign=top;spacingLeft=4;spacingRight=4;overflow=hidden;rotatable=0;points=[[0,0.5],[1,0.5]];portConstraint=eastwest;whiteSpace=wrap;html=1;fontSize=14;fontFamily=Helvetica;labelBackgroundColor=none;fontColor=default;curveFitting=1;jiggle=2;rounded=1;" parent="42" vertex="1"><mxGeometry y="130" width="300" height="26" as="geometry"/></mxCell><mxCell id="48" value="" style="line;strokeWidth=1;fillColor=none;align=left;verticalAlign=middle;spacingTop=-1;spacingLeft=3;spacingRight=3;rotatable=0;labelPosition=right;points=[];portConstraint=eastwest;strokeColor=inherit;hachureGap=4;fontFamily=Helvetica;fontSize=14;curveFitting=1;jiggle=2;rounded=1;" parent="42" vertex="1"><mxGeometry y="156" width="300" height="8" as="geometry"/></mxCell><mxCell id="49" value="+ Change()" style="text;strokeColor=none;fillColor=none;align=left;verticalAlign=top;spacingLeft=4;spacingRight=4;overflow=hidden;rotatable=0;points=[[0,0.5],[1,0.5]];portConstraint=eastwest;whiteSpace=wrap;html=1;fontSize=14;fontFamily=Helvetica;curveFitting=1;jiggle=2;rounded=1;" parent="42" vertex="1"><mxGeometry y="164" width="300" height="26" as="geometry"/></mxCell><mxCell id="50" style="edgeStyle=orthogonalEdgeStyle;rounded=1;hachureGap=4;orthogonalLoop=1;jettySize=auto;html=1;exitX=0.5;exitY=0;exitDx=0;exitDy=0;entryX=1;entryY=0.5;entryDx=0;entryDy=0;fontFamily=Helvetica;fontSize=14;startSize=8;endSize=8;endArrow=block;endFill=0;curveFitting=1;jiggle=2;" parent="1" source="51" target="86" edge="1"><mxGeometry relative="1" as="geometry"/></mxCell><mxCell id="51" value="Blood test" style="swimlane;fontStyle=1;align=center;verticalAlign=top;childLayout=stackLayout;horizontal=1;startSize=26;horizontalStack=0;resizeParent=1;resizeParentMax=0;resizeLast=0;collapsible=1;marginBottom=0;whiteSpace=wrap;html=1;hachureGap=4;fontFamily=Helvetica;fontSize=14;rounded=1;labelBackgroundColor=none;curveFitting=1;jiggle=2;" parent="1" vertex="1"><mxGeometry x="1277" y="-637" width="313" height="398" as="geometry"><mxRectangle x="1279" y="-653" width="130" height="36" as="alternateBounds"/></mxGeometry></mxCell><mxCell id="52" value="+ id: ObjectId" style="text;strokeColor=none;fillColor=none;align=left;verticalAlign=top;spacingLeft=4;spacingRight=4;overflow=hidden;rotatable=0;points=[[0,0.5],[1,0.5]];portConstraint=eastwest;whiteSpace=wrap;html=1;fontSize=14;fontFamily=Helvetica;curveFitting=1;jiggle=2;rounded=1;" parent="51" vertex="1"><mxGeometry y="26" width="313" height="26" as="geometry"/></mxCell><mxCell id="53" value="&lt;span style=&quot;font-size: 14px; font-style: normal; font-variant-ligatures: normal; font-variant-caps: normal; font-weight: 400; letter-spacing: normal; orphans: 2; text-align: left; text-indent: 0px; text-transform: none; widows: 2; word-spacing: 0px; -webkit-text-stroke-width: 0px; text-decoration-thickness: initial; text-decoration-style: initial; text-decoration-color: initial; float: none; display: inline !important;&quot;&gt;+ refToPatient:&amp;nbsp;&lt;/span&gt;ObjectId" style="text;strokeColor=none;fillColor=none;align=left;verticalAlign=top;spacingLeft=4;spacingRight=4;overflow=hidden;rotatable=0;points=[[0,0.5],[1,0.5]];portConstraint=eastwest;whiteSpace=wrap;html=1;fontSize=14;fontFamily=Helvetica;fontColor=default;labelBackgroundColor=none;curveFitting=1;jiggle=2;rounded=1;" parent="51" vertex="1"><mxGeometry y="52" width="313" height="26" as="geometry"/></mxCell><mxCell id="54" value="+ dateTime: DateTime" style="text;strokeColor=none;fillColor=none;align=left;verticalAlign=top;spacingLeft=4;spacingRight=4;overflow=hidden;rotatable=0;points=[[0,0.5],[1,0.5]];portConstraint=eastwest;whiteSpace=wrap;html=1;fontSize=14;fontFamily=Helvetica;curveFitting=1;jiggle=2;rounded=1;" parent="51" vertex="1"><mxGeometry y="78" width="313" height="26" as="geometry"/></mxCell><mxCell id="55" value="+ HGB: int" style="text;strokeColor=none;fillColor=none;align=left;verticalAlign=top;spacingLeft=4;spacingRight=4;overflow=hidden;rotatable=0;points=[[0,0.5],[1,0.5]];portConstraint=eastwest;whiteSpace=wrap;html=1;fontSize=14;fontFamily=Helvetica;curveFitting=1;jiggle=2;rounded=1;" parent="51" vertex="1"><mxGeometry y="104" width="313" height="26" as="geometry"/></mxCell><mxCell id="56" value="&lt;span style=&quot;font-size: 14px; font-style: normal; font-variant-ligatures: normal; font-variant-caps: normal; font-weight: 400; letter-spacing: normal; orphans: 2; text-align: left; text-indent: 0px; text-transform: none; widows: 2; word-spacing: 0px; -webkit-text-stroke-width: 0px; text-decoration-thickness: initial; text-decoration-style: initial; text-decoration-color: initial; float: none; display: inline !important;&quot;&gt;+ PLT: int&lt;/span&gt;" style="text;strokeColor=none;fillColor=none;align=left;verticalAlign=top;spacingLeft=4;spacingRight=4;overflow=hidden;rotatable=0;points=[[0,0.5],[1,0.5]];portConstraint=eastwest;whiteSpace=wrap;html=1;fontSize=14;fontFamily=Helvetica;labelBackgroundColor=none;fontColor=default;curveFitting=1;jiggle=2;rounded=1;" parent="51" vertex="1"><mxGeometry y="130" width="313" height="26" as="geometry"/></mxCell><mxCell id="57" value="&lt;span style=&quot;font-size: 14px; font-style: normal; font-variant-ligatures: normal; font-variant-caps: normal; font-weight: 400; letter-spacing: normal; orphans: 2; text-align: left; text-indent: 0px; text-transform: none; widows: 2; word-spacing: 0px; -webkit-text-stroke-width: 0px; text-decoration-thickness: initial; text-decoration-style: initial; text-decoration-color: initial; float: none; display: inline !important;&quot;&gt;+ WBC: int&lt;/span&gt;" style="text;strokeColor=none;fillColor=none;align=left;verticalAlign=top;spacingLeft=4;spacingRight=4;overflow=hidden;rotatable=0;points=[[0,0.5],[1,0.5]];portConstraint=eastwest;whiteSpace=wrap;html=1;fontSize=14;fontFamily=Helvetica;labelBackgroundColor=none;fontColor=default;curveFitting=1;jiggle=2;rounded=1;" parent="51" vertex="1"><mxGeometry y="156" width="313" height="26" as="geometry"/></mxCell><mxCell id="58" value="&lt;span style=&quot;font-size: 14px; font-style: normal; font-variant-ligatures: normal; font-variant-caps: normal; font-weight: 400; letter-spacing: normal; orphans: 2; text-align: left; text-indent: 0px; text-transform: none; widows: 2; word-spacing: 0px; -webkit-text-stroke-width: 0px; text-decoration-thickness: initial; text-decoration-style: initial; text-decoration-color: initial; float: none; display: inline !important;&quot;&gt;+ RBC: int&lt;/span&gt;" style="text;strokeColor=none;fillColor=none;align=left;verticalAlign=top;spacingLeft=4;spacingRight=4;overflow=hidden;rotatable=0;points=[[0,0.5],[1,0.5]];portConstraint=eastwest;whiteSpace=wrap;html=1;fontSize=14;fontFamily=Helvetica;labelBackgroundColor=none;fontColor=default;curveFitting=1;jiggle=2;rounded=1;" parent="51" vertex="1"><mxGeometry y="182" width="313" height="26" as="geometry"/></mxCell><mxCell id="59" value="&lt;span style=&quot;font-size: 14px; font-style: normal; font-variant-ligatures: normal; font-variant-caps: normal; font-weight: 400; letter-spacing: normal; orphans: 2; text-align: left; text-indent: 0px; text-transform: none; widows: 2; word-spacing: 0px; -webkit-text-stroke-width: 0px; text-decoration-thickness: initial; text-decoration-style: initial; text-decoration-color: initial; float: none; display: inline !important;&quot;&gt;+ HTC: int&lt;/span&gt;" style="text;strokeColor=none;fillColor=none;align=left;verticalAlign=top;spacingLeft=4;spacingRight=4;overflow=hidden;rotatable=0;points=[[0,0.5],[1,0.5]];portConstraint=eastwest;whiteSpace=wrap;html=1;fontSize=14;fontFamily=Helvetica;labelBackgroundColor=none;fontColor=default;curveFitting=1;jiggle=2;rounded=1;" parent="51" vertex="1"><mxGeometry y="208" width="313" height="26" as="geometry"/></mxCell><mxCell id="60" value="&lt;span style=&quot;font-size: 14px; font-style: normal; font-variant-ligatures: normal; font-variant-caps: normal; font-weight: 400; letter-spacing: normal; orphans: 2; text-align: left; text-indent: 0px; text-transform: none; widows: 2; word-spacing: 0px; -webkit-text-stroke-width: 0px; text-decoration-thickness: initial; text-decoration-style: initial; text-decoration-color: initial; float: none; display: inline !important;&quot;&gt;+ Neutrophils: int&lt;br style=&quot;font-size: 14px;&quot;&gt;&lt;/span&gt;" style="text;strokeColor=none;fillColor=none;align=left;verticalAlign=top;spacingLeft=4;spacingRight=4;overflow=hidden;rotatable=0;points=[[0,0.5],[1,0.5]];portConstraint=eastwest;whiteSpace=wrap;html=1;fontSize=14;fontFamily=Helvetica;labelBackgroundColor=none;fontColor=default;curveFitting=1;jiggle=2;rounded=1;" parent="51" vertex="1"><mxGeometry y="234" width="313" height="26" as="geometry"/></mxCell><mxCell id="61" value="&lt;span style=&quot;font-size: 14px; font-style: normal; font-variant-ligatures: normal; font-variant-caps: normal; font-weight: 400; letter-spacing: normal; orphans: 2; text-align: left; text-indent: 0px; text-transform: none; widows: 2; word-spacing: 0px; -webkit-text-stroke-width: 0px; text-decoration-thickness: initial; text-decoration-style: initial; text-decoration-color: initial; float: none; display: inline !important;&quot;&gt;+ Monocytes: int&lt;br style=&quot;font-size: 14px;&quot;&gt;&lt;/span&gt;" style="text;strokeColor=none;fillColor=none;align=left;verticalAlign=top;spacingLeft=4;spacingRight=4;overflow=hidden;rotatable=0;points=[[0,0.5],[1,0.5]];portConstraint=eastwest;whiteSpace=wrap;html=1;fontSize=14;fontFamily=Helvetica;labelBackgroundColor=none;fontColor=default;curveFitting=1;jiggle=2;rounded=1;" parent="51" vertex="1"><mxGeometry y="260" width="313" height="26" as="geometry"/></mxCell><mxCell id="62" value="&lt;span style=&quot;font-size: 14px; font-style: normal; font-variant-ligatures: normal; font-variant-caps: normal; font-weight: 400; letter-spacing: normal; orphans: 2; text-align: left; text-indent: 0px; text-transform: none; widows: 2; word-spacing: 0px; -webkit-text-stroke-width: 0px; text-decoration-thickness: initial; text-decoration-style: initial; text-decoration-color: initial; float: none; display: inline !important;&quot;&gt;+ Eosinophils: int&lt;br style=&quot;font-size: 14px;&quot;&gt;&lt;/span&gt;" style="text;strokeColor=none;fillColor=none;align=left;verticalAlign=top;spacingLeft=4;spacingRight=4;overflow=hidden;rotatable=0;points=[[0,0.5],[1,0.5]];portConstraint=eastwest;whiteSpace=wrap;html=1;fontSize=14;fontFamily=Helvetica;labelBackgroundColor=none;fontColor=default;curveFitting=1;jiggle=2;rounded=1;" parent="51" vertex="1"><mxGeometry y="286" width="313" height="26" as="geometry"/></mxCell><mxCell id="63" value="&lt;span style=&quot;font-size: 14px; font-style: normal; font-variant-ligatures: normal; font-variant-caps: normal; font-weight: 400; letter-spacing: normal; orphans: 2; text-align: left; text-indent: 0px; text-transform: none; widows: 2; word-spacing: 0px; -webkit-text-stroke-width: 0px; text-decoration-thickness: initial; text-decoration-style: initial; text-decoration-color: initial; float: none; display: inline !important;&quot;&gt;+ Basophils: int&lt;br style=&quot;font-size: 14px;&quot;&gt;&lt;/span&gt;" style="text;strokeColor=none;fillColor=none;align=left;verticalAlign=top;spacingLeft=4;spacingRight=4;overflow=hidden;rotatable=0;points=[[0,0.5],[1,0.5]];portConstraint=eastwest;whiteSpace=wrap;html=1;fontSize=14;fontFamily=Helvetica;labelBackgroundColor=none;fontColor=default;curveFitting=1;jiggle=2;rounded=1;" parent="51" vertex="1"><mxGeometry y="312" width="313" height="26" as="geometry"/></mxCell><mxCell id="64" value="+&amp;nbsp;Pymphocytes&lt;span style=&quot;background-color: initial; font-size: 14px;&quot;&gt;: int&lt;/span&gt;" style="text;strokeColor=none;fillColor=none;align=left;verticalAlign=top;spacingLeft=4;spacingRight=4;overflow=hidden;rotatable=0;points=[[0,0.5],[1,0.5]];portConstraint=eastwest;whiteSpace=wrap;html=1;fontSize=14;fontFamily=Helvetica;curveFitting=1;jiggle=2;rounded=1;" parent="51" vertex="1"><mxGeometry y="338" width="313" height="26" as="geometry"/></mxCell><mxCell id="65" value="" style="line;strokeWidth=1;fillColor=none;align=left;verticalAlign=middle;spacingTop=-1;spacingLeft=3;spacingRight=3;rotatable=0;labelPosition=right;points=[];portConstraint=eastwest;strokeColor=inherit;hachureGap=4;fontFamily=Helvetica;fontSize=14;curveFitting=1;jiggle=2;rounded=1;" parent="51" vertex="1"><mxGeometry y="364" width="313" height="8" as="geometry"/></mxCell><mxCell id="66" value="+ Change()" style="text;strokeColor=none;fillColor=none;align=left;verticalAlign=top;spacingLeft=4;spacingRight=4;overflow=hidden;rotatable=0;points=[[0,0.5],[1,0.5]];portConstraint=eastwest;whiteSpace=wrap;html=1;fontSize=14;fontFamily=Helvetica;curveFitting=1;jiggle=2;rounded=1;" parent="51" vertex="1"><mxGeometry y="372" width="313" height="26" as="geometry"/></mxCell><mxCell id="86" value="«interface»&lt;br style=&quot;font-size: 14px;&quot;&gt;&lt;b style=&quot;font-size: 14px;&quot;&gt;Analysis&lt;br style=&quot;font-size: 14px;&quot;&gt;&lt;/b&gt;" style="html=1;whiteSpace=wrap;hachureGap=4;fontFamily=Helvetica;fontSize=14;rounded=1;fillColor=none;strokeColor=#2D7600;curveFitting=1;jiggle=2;fontColor=#ffffff;" parent="1" vertex="1"><mxGeometry x="992" y="-855" width="165" height="73" as="geometry"/></mxCell><mxCell id="174" style="edgeStyle=orthogonalEdgeStyle;rounded=0;orthogonalLoop=1;jettySize=auto;html=1;exitX=0.75;exitY=0;exitDx=0;exitDy=0;entryX=0;entryY=0.5;entryDx=0;entryDy=0;" parent="1" source="87" target="169" edge="1"><mxGeometry relative="1" as="geometry"/></mxCell><mxCell id="87" value="Referral" style="swimlane;fontStyle=1;align=center;verticalAlign=top;childLayout=stackLayout;horizontal=1;startSize=26;horizontalStack=0;resizeParent=1;resizeParentMax=0;resizeLast=0;collapsible=1;marginBottom=0;whiteSpace=wrap;html=1;hachureGap=4;fontFamily=Helvetica;fontSize=14;rounded=1;curveFitting=1;jiggle=2;" parent="1" vertex="1"><mxGeometry x="-700" y="-1296" width="298.5" height="164" as="geometry"><mxRectangle x="1366.5" y="-1484" width="118" height="36" as="alternateBounds"/></mxGeometry></mxCell><mxCell id="88" value="+ id: ObjectId" style="text;strokeColor=none;fillColor=none;align=left;verticalAlign=top;spacingLeft=4;spacingRight=4;overflow=hidden;rotatable=0;points=[[0,0.5],[1,0.5]];portConstraint=eastwest;whiteSpace=wrap;html=1;fontSize=14;fontFamily=Helvetica;curveFitting=1;jiggle=2;rounded=1;" parent="87" vertex="1"><mxGeometry y="26" width="298.5" height="26" as="geometry"/></mxCell><mxCell id="89" value="&lt;span style=&quot;font-size: 14px; font-style: normal; font-variant-ligatures: normal; font-variant-caps: normal; font-weight: 400; letter-spacing: normal; orphans: 2; text-align: left; text-indent: 0px; text-transform: none; widows: 2; word-spacing: 0px; -webkit-text-stroke-width: 0px; text-decoration-thickness: initial; text-decoration-style: initial; text-decoration-color: initial; float: none; display: inline !important;&quot;&gt;+ refToPatient:&amp;nbsp;&lt;/span&gt;ObjectId" style="text;strokeColor=none;fillColor=none;align=left;verticalAlign=top;spacingLeft=4;spacingRight=4;overflow=hidden;rotatable=0;points=[[0,0.5],[1,0.5]];portConstraint=eastwest;whiteSpace=wrap;html=1;fontSize=14;fontFamily=Helvetica;labelBackgroundColor=none;fontColor=default;curveFitting=1;jiggle=2;rounded=1;" parent="87" vertex="1"><mxGeometry y="52" width="298.5" height="26" as="geometry"/></mxCell><mxCell id="90" value="+ AnalysisType: string" style="text;strokeColor=none;fillColor=none;align=left;verticalAlign=top;spacingLeft=4;spacingRight=4;overflow=hidden;rotatable=0;points=[[0,0.5],[1,0.5]];portConstraint=eastwest;whiteSpace=wrap;html=1;fontSize=14;fontFamily=Helvetica;curveFitting=1;jiggle=2;rounded=1;" parent="87" vertex="1"><mxGeometry y="78" width="298.5" height="26" as="geometry"/></mxCell><mxCell id="91" value="+ name: string" style="text;strokeColor=none;fillColor=none;align=left;verticalAlign=top;spacingLeft=4;spacingRight=4;overflow=hidden;rotatable=0;points=[[0,0.5],[1,0.5]];portConstraint=eastwest;whiteSpace=wrap;html=1;fontSize=14;fontFamily=Helvetica;curveFitting=1;jiggle=2;rounded=1;" parent="87" vertex="1"><mxGeometry y="104" width="298.5" height="26" as="geometry"/></mxCell><mxCell id="92" value="&lt;span style=&quot;font-size: 14px; font-style: normal; font-variant-ligatures: normal; font-variant-caps: normal; font-weight: 400; letter-spacing: normal; orphans: 2; text-align: left; text-indent: 0px; text-transform: none; widows: 2; word-spacing: 0px; -webkit-text-stroke-width: 0px; text-decoration-thickness: initial; text-decoration-style: initial; text-decoration-color: initial; float: none; display: inline !important;&quot;&gt;+ time: DateTime&lt;/span&gt;" style="text;strokeColor=none;fillColor=none;align=left;verticalAlign=top;spacingLeft=4;spacingRight=4;overflow=hidden;rotatable=0;points=[[0,0.5],[1,0.5]];portConstraint=eastwest;whiteSpace=wrap;html=1;fontSize=14;fontFamily=Helvetica;labelBackgroundColor=none;fontColor=default;curveFitting=1;jiggle=2;rounded=1;" parent="87" vertex="1"><mxGeometry y="130" width="298.5" height="26" as="geometry"/></mxCell><mxCell id="93" value="" style="line;strokeWidth=1;fillColor=none;align=left;verticalAlign=middle;spacingTop=-1;spacingLeft=3;spacingRight=3;rotatable=0;labelPosition=right;points=[];portConstraint=eastwest;strokeColor=inherit;hachureGap=4;fontFamily=Helvetica;fontSize=14;curveFitting=1;jiggle=2;rounded=1;" parent="87" vertex="1"><mxGeometry y="156" width="298.5" height="8" as="geometry"/></mxCell><mxCell id="96" value="" style="endArrow=diamondThin;endFill=0;endSize=24;html=1;rounded=1;hachureGap=4;fontFamily=Helvetica;fontSize=14;entryX=-0.002;entryY=0.751;entryDx=0;entryDy=0;entryPerimeter=0;exitX=1;exitY=0.5;exitDx=0;exitDy=0;curveFitting=1;jiggle=2;" parent="1" source="17" target="4" edge="1"><mxGeometry width="160" relative="1" as="geometry"><mxPoint x="530" y="-1227" as="sourcePoint"/><mxPoint x="690" y="-1227" as="targetPoint"/></mxGeometry></mxCell><mxCell id="179" style="edgeStyle=orthogonalEdgeStyle;rounded=0;orthogonalLoop=1;jettySize=auto;html=1;exitX=0.5;exitY=0;exitDx=0;exitDy=0;entryX=0.5;entryY=1.024;entryDx=0;entryDy=0;entryPerimeter=0;" edge="1" parent="1" source="97" target="152"><mxGeometry relative="1" as="geometry"/></mxCell><mxCell id="97" value="Announcement" style="swimlane;fontStyle=1;align=center;verticalAlign=top;childLayout=stackLayout;horizontal=1;startSize=26;horizontalStack=0;resizeParent=1;resizeParentMax=0;resizeLast=0;collapsible=1;marginBottom=0;whiteSpace=wrap;html=1;hachureGap=4;fontFamily=Helvetica;fontSize=14;rounded=1;curveFitting=1;jiggle=2;" parent="1" vertex="1"><mxGeometry x="548.75" y="-1426" width="295.5" height="112" as="geometry"><mxRectangle x="1370" y="-1166" width="124" height="36" as="alternateBounds"/></mxGeometry></mxCell><mxCell id="98" value="+ id: ObjectId" style="text;strokeColor=none;fillColor=none;align=left;verticalAlign=top;spacingLeft=4;spacingRight=4;overflow=hidden;rotatable=0;points=[[0,0.5],[1,0.5]];portConstraint=eastwest;whiteSpace=wrap;html=1;fontSize=14;fontFamily=Helvetica;curveFitting=1;jiggle=2;rounded=1;" parent="97" vertex="1"><mxGeometry y="26" width="295.5" height="26" as="geometry"/></mxCell><mxCell id="99" value="+ title: string" style="text;strokeColor=none;fillColor=none;align=left;verticalAlign=top;spacingLeft=4;spacingRight=4;overflow=hidden;rotatable=0;points=[[0,0.5],[1,0.5]];portConstraint=eastwest;whiteSpace=wrap;html=1;fontSize=14;fontFamily=Helvetica;curveFitting=1;jiggle=2;rounded=1;" parent="97" vertex="1"><mxGeometry y="52" width="295.5" height="26" as="geometry"/></mxCell><mxCell id="100" value="&lt;span style=&quot;font-size: 14px; font-style: normal; font-variant-ligatures: normal; font-variant-caps: normal; font-weight: 400; letter-spacing: normal; orphans: 2; text-align: left; text-indent: 0px; text-transform: none; widows: 2; word-spacing: 0px; -webkit-text-stroke-width: 0px; text-decoration-thickness: initial; text-decoration-style: initial; text-decoration-color: initial; float: none; display: inline !important;&quot;&gt;+ text: string&lt;/span&gt;" style="text;strokeColor=none;fillColor=none;align=left;verticalAlign=top;spacingLeft=4;spacingRight=4;overflow=hidden;rotatable=0;points=[[0,0.5],[1,0.5]];portConstraint=eastwest;whiteSpace=wrap;html=1;fontSize=14;fontFamily=Helvetica;labelBackgroundColor=none;fontColor=default;curveFitting=1;jiggle=2;rounded=1;" parent="97" vertex="1"><mxGeometry y="78" width="295.5" height="26" as="geometry"/></mxCell><mxCell id="101" value="" style="line;strokeWidth=1;fillColor=none;align=left;verticalAlign=middle;spacingTop=-1;spacingLeft=3;spacingRight=3;rotatable=0;labelPosition=right;points=[];portConstraint=eastwest;strokeColor=inherit;hachureGap=4;fontFamily=Helvetica;fontSize=14;curveFitting=1;jiggle=2;rounded=1;" parent="97" vertex="1"><mxGeometry y="104" width="295.5" height="8" as="geometry"/></mxCell><mxCell id="104" value="MongoSettings" style="swimlane;fontStyle=1;align=center;verticalAlign=top;childLayout=stackLayout;horizontal=1;startSize=26;horizontalStack=0;resizeParent=1;resizeParentMax=0;resizeLast=0;collapsible=1;marginBottom=0;whiteSpace=wrap;html=1;hachureGap=4;fontFamily=Trebuchet MS;fontSize=14;rounded=1;curveFitting=1;jiggle=2;spacing=2;swimlaneLine=1;strokeOpacity=100;" parent="1" vertex="1"><mxGeometry x="-109" y="-2205" width="236" height="117" as="geometry"><mxRectangle x="164" y="-1317" width="102" height="36" as="alternateBounds"/></mxGeometry></mxCell><mxCell id="105" value="+ host: string" style="text;strokeColor=none;fillColor=none;align=left;verticalAlign=top;spacingLeft=4;spacingRight=4;overflow=hidden;rotatable=0;points=[[0,0.5],[1,0.5]];portConstraint=eastwest;whiteSpace=wrap;html=1;fontSize=14;fontFamily=Trebuchet MS;curveFitting=1;jiggle=2;rounded=1;spacing=2;swimlaneLine=1;strokeOpacity=100;" parent="104" vertex="1"><mxGeometry y="26" width="236" height="26" as="geometry"/></mxCell><mxCell id="106" value="&lt;span style=&quot;font-size: 14px; font-style: normal; font-variant-ligatures: normal; font-variant-caps: normal; font-weight: 400; letter-spacing: normal; orphans: 2; text-align: left; text-indent: 0px; text-transform: none; widows: 2; word-spacing: 0px; -webkit-text-stroke-width: 0px; text-decoration-thickness: initial; text-decoration-style: initial; text-decoration-color: initial; float: none; display: inline !important;&quot;&gt;+ database: string&lt;/span&gt;" style="text;strokeColor=none;fillColor=none;align=left;verticalAlign=top;spacingLeft=4;spacingRight=4;overflow=hidden;rotatable=0;points=[[0,0.5],[1,0.5]];portConstraint=eastwest;whiteSpace=wrap;html=1;fontSize=14;fontFamily=Trebuchet MS;fontColor=default;labelBackgroundColor=none;curveFitting=1;jiggle=2;rounded=1;spacing=2;swimlaneLine=1;strokeOpacity=100;" parent="104" vertex="1"><mxGeometry y="52" width="236" height="26" as="geometry"/></mxCell><mxCell id="110" value="" style="line;strokeWidth=1;fillColor=none;align=left;verticalAlign=middle;spacingTop=-1;spacingLeft=3;spacingRight=3;rotatable=0;labelPosition=right;points=[];portConstraint=eastwest;strokeColor=inherit;hachureGap=4;fontFamily=Trebuchet MS;fontSize=14;curveFitting=1;jiggle=2;rounded=1;spacing=2;swimlaneLine=1;strokeOpacity=100;" parent="104" vertex="1"><mxGeometry y="78" width="236" height="8" as="geometry"/></mxCell><mxCell id="111" value="&lt;span style=&quot;font-size: 14px; font-style: normal; font-variant-ligatures: normal; font-variant-caps: normal; font-weight: 400; letter-spacing: normal; orphans: 2; text-align: left; text-indent: 0px; text-transform: none; widows: 2; word-spacing: 0px; -webkit-text-stroke-width: 0px; text-decoration-thickness: initial; text-decoration-style: initial; text-decoration-color: initial; float: none; display: inline !important;&quot;&gt;+ MongoSettings(host, database)&lt;/span&gt;" style="text;strokeColor=none;fillColor=none;align=left;verticalAlign=top;spacingLeft=4;spacingRight=4;overflow=hidden;rotatable=0;points=[[0,0.5],[1,0.5]];portConstraint=eastwest;whiteSpace=wrap;html=1;fontSize=14;fontFamily=Trebuchet MS;labelBackgroundColor=none;fontColor=default;curveFitting=1;jiggle=2;rounded=1;spacing=2;swimlaneLine=1;strokeOpacity=100;" parent="104" vertex="1"><mxGeometry y="86" width="236" height="31" as="geometry"/></mxCell><mxCell id="113" value="ClientMongoService" style="swimlane;fontStyle=1;align=center;verticalAlign=top;childLayout=stackLayout;horizontal=1;startSize=26;horizontalStack=0;resizeParent=1;resizeParentMax=0;resizeLast=0;collapsible=1;marginBottom=0;whiteSpace=wrap;html=1;hachureGap=4;fontFamily=Trebuchet MS;fontSize=14;rounded=1;curveFitting=1;jiggle=2;spacing=2;swimlaneLine=1;strokeOpacity=100;" parent="1" vertex="1"><mxGeometry x="-109" y="-1972" width="235" height="137" as="geometry"><mxRectangle x="164" y="-1317" width="102" height="36" as="alternateBounds"/></mxGeometry></mxCell><mxCell id="115" value="&lt;span style=&quot;font-size: 14px; font-style: normal; font-variant-ligatures: normal; font-variant-caps: normal; font-weight: 400; letter-spacing: normal; orphans: 2; text-align: left; text-indent: 0px; text-transform: none; widows: 2; word-spacing: 0px; -webkit-text-stroke-width: 0px; text-decoration-thickness: initial; text-decoration-style: initial; text-decoration-color: initial; float: none; display: inline !important;&quot;&gt;- _client: MongoClient&lt;/span&gt;" style="text;strokeColor=none;fillColor=none;align=left;verticalAlign=top;spacingLeft=4;spacingRight=4;overflow=hidden;rotatable=0;points=[[0,0.5],[1,0.5]];portConstraint=eastwest;whiteSpace=wrap;html=1;fontSize=14;fontFamily=Trebuchet MS;fontColor=default;labelBackgroundColor=none;curveFitting=1;jiggle=2;rounded=1;spacing=2;swimlaneLine=1;strokeOpacity=100;" parent="113" vertex="1"><mxGeometry y="26" width="235" height="26" as="geometry"/></mxCell><mxCell id="116" value="+ database: IMongoDatabase" style="text;strokeColor=none;fillColor=none;align=left;verticalAlign=top;spacingLeft=4;spacingRight=4;overflow=hidden;rotatable=0;points=[[0,0.5],[1,0.5]];portConstraint=eastwest;whiteSpace=wrap;html=1;fontSize=14;fontFamily=Trebuchet MS;labelBackgroundColor=none;fontColor=default;curveFitting=1;jiggle=2;rounded=1;spacing=2;swimlaneLine=1;strokeOpacity=100;" parent="113" vertex="1"><mxGeometry y="52" width="235" height="29" as="geometry"/></mxCell><mxCell id="119" value="" style="line;strokeWidth=1;fillColor=none;align=left;verticalAlign=middle;spacingTop=-1;spacingLeft=3;spacingRight=3;rotatable=0;labelPosition=right;points=[];portConstraint=eastwest;strokeColor=inherit;hachureGap=4;fontFamily=Trebuchet MS;fontSize=14;curveFitting=1;jiggle=2;rounded=1;spacing=2;swimlaneLine=1;strokeOpacity=100;" parent="113" vertex="1"><mxGeometry y="81" width="235" height="8" as="geometry"/></mxCell><mxCell id="120" value="&lt;span style=&quot;font-size: 14px; font-style: normal; font-variant-ligatures: normal; font-variant-caps: normal; font-weight: 400; letter-spacing: normal; orphans: 2; text-align: left; text-indent: 0px; text-transform: none; widows: 2; word-spacing: 0px; -webkit-text-stroke-width: 0px; text-decoration-thickness: initial; text-decoration-style: initial; text-decoration-color: initial; float: none; display: inline !important;&quot;&gt;+ ClientMongoService&lt;br style=&quot;font-size: 14px;&quot;&gt;(MongoSettings)&lt;/span&gt;" style="text;strokeColor=none;fillColor=none;align=left;verticalAlign=top;spacingLeft=4;spacingRight=4;overflow=hidden;rotatable=0;points=[[0,0.5],[1,0.5]];portConstraint=eastwest;whiteSpace=wrap;html=1;fontSize=14;fontFamily=Trebuchet MS;labelBackgroundColor=none;fontColor=default;curveFitting=1;jiggle=2;rounded=1;spacing=2;swimlaneLine=1;strokeOpacity=100;" parent="113" vertex="1"><mxGeometry y="89" width="235" height="48" as="geometry"/></mxCell><mxCell id="131" value="AuthorizationService" style="swimlane;fontStyle=1;align=center;verticalAlign=top;childLayout=stackLayout;horizontal=1;startSize=26;horizontalStack=0;resizeParent=1;resizeParentMax=0;resizeLast=0;collapsible=1;marginBottom=0;whiteSpace=wrap;html=1;hachureGap=4;fontFamily=Trebuchet MS;fontSize=14;rounded=1;curveFitting=1;jiggle=2;spacing=2;swimlaneLine=1;strokeOpacity=100;labelBackgroundColor=none;swimlaneFillColor=none;fillColor=default;strokeColor=#FFFFFF;" parent="1" vertex="1"><mxGeometry x="-101.5" y="-1690" width="220" height="135" as="geometry"><mxRectangle x="164" y="-1317" width="102" height="36" as="alternateBounds"/></mxGeometry></mxCell><mxCell id="132" value="- _database : IMongoDatabase" style="text;strokeColor=none;fillColor=none;align=left;verticalAlign=top;spacingLeft=4;spacingRight=4;overflow=hidden;rotatable=0;points=[[0,0.5],[1,0.5]];portConstraint=eastwest;whiteSpace=wrap;html=1;fontSize=14;fontFamily=Trebuchet MS;curveFitting=1;jiggle=2;rounded=1;spacing=2;swimlaneLine=1;strokeOpacity=100;" parent="131" vertex="1"><mxGeometry y="26" width="220" height="26" as="geometry"/></mxCell><mxCell id="137" value="" style="line;strokeWidth=1;fillColor=none;align=left;verticalAlign=middle;spacingTop=-1;spacingLeft=3;spacingRight=3;rotatable=0;labelPosition=right;points=[];portConstraint=eastwest;strokeColor=inherit;hachureGap=4;fontFamily=Trebuchet MS;fontSize=14;curveFitting=1;jiggle=2;rounded=1;spacing=2;swimlaneLine=1;strokeOpacity=100;" parent="131" vertex="1"><mxGeometry y="52" width="220" height="8" as="geometry"/></mxCell><mxCell id="138" value="&lt;span style=&quot;font-size: 14px; font-style: normal; font-variant-ligatures: normal; font-variant-caps: normal; letter-spacing: normal; orphans: 2; text-align: left; text-indent: 0px; text-transform: none; widows: 2; word-spacing: 0px; -webkit-text-stroke-width: 0px; text-decoration-thickness: initial; text-decoration-style: initial; text-decoration-color: initial; float: none; display: inline !important;&quot;&gt;+&amp;nbsp;&lt;span style=&quot;text-align: center; font-size: 14px;&quot;&gt;AuthorizationService&lt;br style=&quot;font-size: 14px;&quot;&gt;&lt;/span&gt;(ClientMongoService)&lt;/span&gt;" style="text;strokeColor=none;fillColor=none;align=left;verticalAlign=top;spacingLeft=4;spacingRight=4;overflow=hidden;rotatable=0;points=[[0,0.5],[1,0.5]];portConstraint=eastwest;whiteSpace=wrap;html=1;fontSize=14;fontFamily=Trebuchet MS;labelBackgroundColor=none;fontColor=default;curveFitting=1;jiggle=2;rounded=1;spacing=2;swimlaneLine=1;strokeOpacity=100;" parent="131" vertex="1"><mxGeometry y="60" width="220" height="44" as="geometry"/></mxCell><mxCell id="139" value="+&amp;nbsp;&lt;span style=&quot;text-align: center; font-size: 14px;&quot;&gt;Authorization&lt;/span&gt;()" style="text;strokeColor=none;fillColor=none;align=left;verticalAlign=top;spacingLeft=4;spacingRight=4;overflow=hidden;rotatable=0;points=[[0,0.5],[1,0.5]];portConstraint=eastwest;whiteSpace=wrap;html=1;fontSize=14;fontFamily=Trebuchet MS;curveFitting=1;jiggle=2;rounded=1;spacing=2;swimlaneLine=1;strokeOpacity=100;" parent="131" vertex="1"><mxGeometry y="104" width="220" height="31" as="geometry"/></mxCell><mxCell id="140" value="1" style="endArrow=open;html=1;endSize=12;startArrow=diamondThin;startSize=14;startFill=0;edgeStyle=orthogonalEdgeStyle;align=left;verticalAlign=bottom;rounded=0;fontFamily=Trebuchet MS;fontColor=default;exitX=0.5;exitY=0;exitDx=0;exitDy=0;entryX=0.5;entryY=1;entryDx=0;entryDy=0;fontSize=14;spacing=2;swimlaneLine=1;strokeOpacity=100;" parent="1" source="113" target="104" edge="1"><mxGeometry x="-0.8462" y="18" relative="1" as="geometry"><mxPoint x="382" y="-1817" as="sourcePoint"/><mxPoint x="74" y="-2033" as="targetPoint"/><mxPoint as="offset"/></mxGeometry></mxCell><mxCell id="142" value="1" style="endArrow=open;html=1;endSize=12;startArrow=diamondThin;startSize=14;startFill=0;edgeStyle=orthogonalEdgeStyle;align=left;verticalAlign=bottom;rounded=0;fontFamily=Trebuchet MS;fontColor=default;entryX=0.5;entryY=1;entryDx=0;entryDy=0;exitX=0.5;exitY=0;exitDx=0;exitDy=0;fontSize=14;spacing=2;swimlaneLine=1;strokeOpacity=100;" parent="1" source="131" target="113" edge="1"><mxGeometry x="-0.8462" y="18" relative="1" as="geometry"><mxPoint x="-28" y="-1746" as="sourcePoint"/><mxPoint x="43" y="-2054" as="targetPoint"/><mxPoint as="offset"/></mxGeometry></mxCell><mxCell id="143" value="AuthenticateService" style="swimlane;fontStyle=1;align=center;verticalAlign=top;childLayout=stackLayout;horizontal=1;startSize=26;horizontalStack=0;resizeParent=1;resizeParentMax=0;resizeLast=0;collapsible=1;marginBottom=0;whiteSpace=wrap;html=1;hachureGap=4;fontFamily=Trebuchet MS;fontSize=14;rounded=1;curveFitting=1;jiggle=2;spacing=2;swimlaneLine=1;strokeOpacity=100;" parent="1" vertex="1"><mxGeometry x="-807" y="-1690" width="222" height="138" as="geometry"><mxRectangle x="164" y="-1317" width="102" height="36" as="alternateBounds"/></mxGeometry></mxCell><mxCell id="144" value="- _database : IMongoDatabase" style="text;strokeColor=none;fillColor=none;align=left;verticalAlign=top;spacingLeft=4;spacingRight=4;overflow=hidden;rotatable=0;points=[[0,0.5],[1,0.5]];portConstraint=eastwest;whiteSpace=wrap;html=1;fontSize=14;fontFamily=Trebuchet MS;curveFitting=1;jiggle=2;rounded=1;spacing=2;swimlaneLine=1;strokeOpacity=100;" parent="143" vertex="1"><mxGeometry y="26" width="222" height="26" as="geometry"/></mxCell><mxCell id="145" value="" style="line;strokeWidth=1;fillColor=none;align=left;verticalAlign=middle;spacingTop=-1;spacingLeft=3;spacingRight=3;rotatable=0;labelPosition=right;points=[];portConstraint=eastwest;strokeColor=inherit;hachureGap=4;fontFamily=Trebuchet MS;fontSize=14;curveFitting=1;jiggle=2;rounded=1;spacing=2;swimlaneLine=1;strokeOpacity=100;" parent="143" vertex="1"><mxGeometry y="52" width="222" height="8" as="geometry"/></mxCell><mxCell id="146" value="&lt;span style=&quot;font-size: 14px; font-style: normal; font-variant-ligatures: normal; font-variant-caps: normal; letter-spacing: normal; orphans: 2; text-align: left; text-indent: 0px; text-transform: none; widows: 2; word-spacing: 0px; -webkit-text-stroke-width: 0px; text-decoration-thickness: initial; text-decoration-style: initial; text-decoration-color: initial; float: none; display: inline !important;&quot;&gt;+ Authenticate&lt;span style=&quot;text-align: center; font-size: 14px;&quot;&gt;Service&lt;br style=&quot;font-size: 14px;&quot;&gt;&lt;/span&gt;(ClientMongoService)&lt;/span&gt;" style="text;strokeColor=none;fillColor=none;align=left;verticalAlign=top;spacingLeft=4;spacingRight=4;overflow=hidden;rotatable=0;points=[[0,0.5],[1,0.5]];portConstraint=eastwest;whiteSpace=wrap;html=1;fontSize=14;fontFamily=Trebuchet MS;labelBackgroundColor=none;fontColor=default;curveFitting=1;jiggle=2;rounded=1;spacing=2;swimlaneLine=1;strokeOpacity=100;" parent="143" vertex="1"><mxGeometry y="60" width="222" height="46" as="geometry"/></mxCell><mxCell id="147" value="+ AuthenticateAsync()" style="text;strokeColor=none;fillColor=none;align=left;verticalAlign=top;spacingLeft=4;spacingRight=4;overflow=hidden;rotatable=0;points=[[0,0.5],[1,0.5]];portConstraint=eastwest;whiteSpace=wrap;html=1;fontSize=14;fontFamily=Trebuchet MS;curveFitting=1;jiggle=2;rounded=1;spacing=2;swimlaneLine=1;strokeOpacity=100;" parent="143" vertex="1"><mxGeometry y="106" width="222" height="32" as="geometry"/></mxCell><mxCell id="148" value="AnnouncementService" style="swimlane;fontStyle=1;align=center;verticalAlign=top;childLayout=stackLayout;horizontal=1;startSize=26;horizontalStack=0;resizeParent=1;resizeParentMax=0;resizeLast=0;collapsible=1;marginBottom=0;whiteSpace=wrap;html=1;hachureGap=4;fontFamily=Trebuchet MS;fontSize=14;rounded=1;curveFitting=1;jiggle=2;spacing=2;swimlaneLine=1;strokeOpacity=100;" parent="1" vertex="1"><mxGeometry x="585" y="-1693" width="223" height="139" as="geometry"><mxRectangle x="164" y="-1317" width="102" height="36" as="alternateBounds"/></mxGeometry></mxCell><mxCell id="149" value="- _database : IMongoDatabase" style="text;strokeColor=none;fillColor=none;align=left;verticalAlign=top;spacingLeft=4;spacingRight=4;overflow=hidden;rotatable=0;points=[[0,0.5],[1,0.5]];portConstraint=eastwest;whiteSpace=wrap;html=1;fontSize=14;fontFamily=Trebuchet MS;curveFitting=1;jiggle=2;rounded=1;spacing=2;swimlaneLine=1;strokeOpacity=100;" parent="148" vertex="1"><mxGeometry y="26" width="223" height="27" as="geometry"/></mxCell><mxCell id="150" value="" style="line;strokeWidth=1;fillColor=none;align=left;verticalAlign=middle;spacingTop=-1;spacingLeft=3;spacingRight=3;rotatable=0;labelPosition=right;points=[];portConstraint=eastwest;strokeColor=inherit;hachureGap=4;fontFamily=Trebuchet MS;fontSize=14;curveFitting=1;jiggle=2;rounded=1;spacing=2;swimlaneLine=1;strokeOpacity=100;" parent="148" vertex="1"><mxGeometry y="53" width="223" height="8" as="geometry"/></mxCell><mxCell id="151" value="&lt;span style=&quot;font-size: 14px; font-style: normal; font-variant-ligatures: normal; font-variant-caps: normal; letter-spacing: normal; orphans: 2; text-align: left; text-indent: 0px; text-transform: none; widows: 2; word-spacing: 0px; -webkit-text-stroke-width: 0px; text-decoration-thickness: initial; text-decoration-style: initial; text-decoration-color: initial; float: none; display: inline !important;&quot;&gt;+&amp;nbsp;&lt;span style=&quot;text-align: center; font-size: 14px;&quot;&gt;AnnouncementService&lt;br style=&quot;font-size: 14px;&quot;&gt;&lt;/span&gt;(ClientMongoService)&lt;/span&gt;" style="text;strokeColor=none;fillColor=none;align=left;verticalAlign=top;spacingLeft=4;spacingRight=4;overflow=hidden;rotatable=0;points=[[0,0.5],[1,0.5]];portConstraint=eastwest;whiteSpace=wrap;html=1;fontSize=14;fontFamily=Trebuchet MS;labelBackgroundColor=none;fontColor=default;curveFitting=1;jiggle=2;rounded=1;spacing=2;swimlaneLine=1;strokeOpacity=100;" parent="148" vertex="1"><mxGeometry y="61" width="223" height="46" as="geometry"/></mxCell><mxCell id="152" value="+ Get&lt;span style=&quot;text-align: center; font-size: 14px;&quot;&gt;AnnouncementAsync&lt;/span&gt;()" style="text;strokeColor=none;fillColor=none;align=left;verticalAlign=top;spacingLeft=4;spacingRight=4;overflow=hidden;rotatable=0;points=[[0,0.5],[1,0.5]];portConstraint=eastwest;whiteSpace=wrap;html=1;fontSize=14;fontFamily=Trebuchet MS;curveFitting=1;jiggle=2;rounded=1;spacing=2;swimlaneLine=1;strokeOpacity=100;" parent="148" vertex="1"><mxGeometry y="107" width="223" height="32" as="geometry"/></mxCell><mxCell id="153" value="1" style="endArrow=open;html=1;endSize=12;startArrow=diamondThin;startSize=14;startFill=0;edgeStyle=orthogonalEdgeStyle;align=left;verticalAlign=bottom;rounded=0;fontFamily=Trebuchet MS;fontColor=default;entryX=0.815;entryY=1.035;entryDx=0;entryDy=0;exitX=0.5;exitY=0;exitDx=0;exitDy=0;entryPerimeter=0;fontSize=14;spacing=2;swimlaneLine=1;strokeOpacity=100;" parent="1" source="148" target="120" edge="1"><mxGeometry x="-0.9492" y="20" relative="1" as="geometry"><mxPoint x="43" y="-1683" as="sourcePoint"/><mxPoint x="43" y="-1792" as="targetPoint"/><mxPoint as="offset"/><Array as="points"><mxPoint x="697" y="-1750"/><mxPoint x="83" y="-1750"/><mxPoint x="83" y="-1833"/></Array></mxGeometry></mxCell><mxCell id="154" value="1" style="endArrow=open;html=1;endSize=12;startArrow=diamondThin;startSize=14;startFill=0;edgeStyle=orthogonalEdgeStyle;align=left;verticalAlign=bottom;rounded=0;fontFamily=Trebuchet MS;fontColor=default;entryX=0.167;entryY=1.019;entryDx=0;entryDy=0;exitX=0.5;exitY=0;exitDx=0;exitDy=0;entryPerimeter=0;fontSize=14;spacing=2;swimlaneLine=1;strokeOpacity=100;" parent="1" source="143" target="120" edge="1"><mxGeometry x="-0.9258" y="18" relative="1" as="geometry"><mxPoint x="43" y="-1683" as="sourcePoint"/><mxPoint x="43" y="-1792" as="targetPoint"/><mxPoint as="offset"/><Array as="points"><mxPoint x="-696" y="-1750"/><mxPoint x="-70" y="-1750"/></Array></mxGeometry></mxCell><mxCell id="155" value="PatientStorageService" style="swimlane;fontStyle=1;align=center;verticalAlign=top;childLayout=stackLayout;horizontal=1;startSize=26;horizontalStack=0;resizeParent=1;resizeParentMax=0;resizeLast=0;collapsible=1;marginBottom=0;whiteSpace=wrap;html=1;hachureGap=4;fontFamily=Trebuchet MS;fontSize=14;rounded=1;curveFitting=1;jiggle=2;spacing=2;swimlaneLine=1;strokeOpacity=100;" parent="1" vertex="1"><mxGeometry x="241" y="-1590" width="222" height="234" as="geometry"><mxRectangle x="164" y="-1317" width="102" height="36" as="alternateBounds"/></mxGeometry></mxCell><mxCell id="156" value="- _database : IMongoDatabase" style="text;strokeColor=none;fillColor=none;align=left;verticalAlign=top;spacingLeft=4;spacingRight=4;overflow=hidden;rotatable=0;points=[[0,0.5],[1,0.5]];portConstraint=eastwest;whiteSpace=wrap;html=1;fontSize=14;fontFamily=Trebuchet MS;curveFitting=1;jiggle=2;rounded=1;spacing=2;swimlaneLine=1;strokeOpacity=100;" parent="155" vertex="1"><mxGeometry y="26" width="222" height="26" as="geometry"/></mxCell><mxCell id="157" value="" style="line;strokeWidth=1;fillColor=none;align=left;verticalAlign=middle;spacingTop=-1;spacingLeft=3;spacingRight=3;rotatable=0;labelPosition=right;points=[];portConstraint=eastwest;strokeColor=inherit;hachureGap=4;fontFamily=Trebuchet MS;fontSize=14;curveFitting=1;jiggle=2;rounded=1;spacing=2;swimlaneLine=1;strokeOpacity=100;" parent="155" vertex="1"><mxGeometry y="52" width="222" height="8" as="geometry"/></mxCell><mxCell id="158" value="&lt;span style=&quot;font-size: 14px; font-style: normal; font-variant-ligatures: normal; font-variant-caps: normal; letter-spacing: normal; orphans: 2; text-align: left; text-indent: 0px; text-transform: none; widows: 2; word-spacing: 0px; -webkit-text-stroke-width: 0px; text-decoration-thickness: initial; text-decoration-style: initial; text-decoration-color: initial; float: none; display: inline !important;&quot;&gt;+&amp;nbsp;&lt;span style=&quot;text-align: center;&quot;&gt;PatientStorageService&lt;/span&gt;&lt;span style=&quot;text-align: center; font-size: 14px;&quot;&gt;&lt;br style=&quot;font-size: 14px;&quot;&gt;&lt;/span&gt;(ClientMongoService)&lt;/span&gt;" style="text;strokeColor=none;fillColor=none;align=left;verticalAlign=top;spacingLeft=4;spacingRight=4;overflow=hidden;rotatable=0;points=[[0,0.5],[1,0.5]];portConstraint=eastwest;whiteSpace=wrap;html=1;fontSize=14;fontFamily=Trebuchet MS;labelBackgroundColor=none;fontColor=default;curveFitting=1;jiggle=2;rounded=1;spacing=2;swimlaneLine=1;strokeOpacity=100;" parent="155" vertex="1"><mxGeometry y="60" width="222" height="46" as="geometry"/></mxCell><mxCell id="159" value="+ GetPatientsByDoctorIdAsync()" style="text;strokeColor=none;fillColor=none;align=left;verticalAlign=top;spacingLeft=4;spacingRight=4;overflow=hidden;rotatable=0;points=[[0,0.5],[1,0.5]];portConstraint=eastwest;whiteSpace=wrap;html=1;fontSize=14;fontFamily=Trebuchet MS;curveFitting=1;jiggle=2;rounded=1;spacing=2;swimlaneLine=1;strokeOpacity=100;" parent="155" vertex="1"><mxGeometry y="106" width="222" height="32" as="geometry"/></mxCell><mxCell id="160" value="+ GetArchivePatients()" style="text;strokeColor=none;fillColor=none;align=left;verticalAlign=top;spacingLeft=4;spacingRight=4;overflow=hidden;rotatable=0;points=[[0,0.5],[1,0.5]];portConstraint=eastwest;whiteSpace=wrap;html=1;fontSize=14;fontFamily=Trebuchet MS;curveFitting=1;jiggle=2;rounded=1;spacing=2;swimlaneLine=1;strokeOpacity=100;" parent="155" vertex="1"><mxGeometry y="138" width="222" height="32" as="geometry"/></mxCell><mxCell id="162" value="+ GetPatientByIdAsync()" style="text;strokeColor=none;fillColor=none;align=left;verticalAlign=top;spacingLeft=4;spacingRight=4;overflow=hidden;rotatable=0;points=[[0,0.5],[1,0.5]];portConstraint=eastwest;whiteSpace=wrap;html=1;fontSize=14;fontFamily=Trebuchet MS;curveFitting=1;jiggle=2;rounded=1;spacing=2;swimlaneLine=1;strokeOpacity=100;" parent="155" vertex="1"><mxGeometry y="170" width="222" height="32" as="geometry"/></mxCell><mxCell id="161" value="+ UpdatePatientAsync()" style="text;strokeColor=none;fillColor=none;align=left;verticalAlign=top;spacingLeft=4;spacingRight=4;overflow=hidden;rotatable=0;points=[[0,0.5],[1,0.5]];portConstraint=eastwest;whiteSpace=wrap;html=1;fontSize=14;fontFamily=Trebuchet MS;curveFitting=1;jiggle=2;rounded=1;spacing=2;swimlaneLine=1;strokeOpacity=100;" parent="155" vertex="1"><mxGeometry y="202" width="222" height="32" as="geometry"/></mxCell><mxCell id="163" value="MedicalCardService" style="swimlane;fontStyle=1;align=center;verticalAlign=top;childLayout=stackLayout;horizontal=1;startSize=26;horizontalStack=0;resizeParent=1;resizeParentMax=0;resizeLast=0;collapsible=1;marginBottom=0;whiteSpace=wrap;html=1;hachureGap=4;fontFamily=Trebuchet MS;fontSize=14;rounded=1;curveFitting=1;jiggle=2;spacing=2;swimlaneLine=1;strokeOpacity=100;" parent="1" vertex="1"><mxGeometry x="-447" y="-1690" width="222" height="202" as="geometry"><mxRectangle x="164" y="-1317" width="102" height="36" as="alternateBounds"/></mxGeometry></mxCell><mxCell id="164" value="- _database : IMongoDatabase" style="text;strokeColor=none;fillColor=none;align=left;verticalAlign=top;spacingLeft=4;spacingRight=4;overflow=hidden;rotatable=0;points=[[0,0.5],[1,0.5]];portConstraint=eastwest;whiteSpace=wrap;html=1;fontSize=14;fontFamily=Trebuchet MS;curveFitting=1;jiggle=2;rounded=1;spacing=2;swimlaneLine=1;strokeOpacity=100;" parent="163" vertex="1"><mxGeometry y="26" width="222" height="26" as="geometry"/></mxCell><mxCell id="165" value="" style="line;strokeWidth=1;fillColor=none;align=left;verticalAlign=middle;spacingTop=-1;spacingLeft=3;spacingRight=3;rotatable=0;labelPosition=right;points=[];portConstraint=eastwest;strokeColor=inherit;hachureGap=4;fontFamily=Trebuchet MS;fontSize=14;curveFitting=1;jiggle=2;rounded=1;spacing=2;swimlaneLine=1;strokeOpacity=100;" parent="163" vertex="1"><mxGeometry y="52" width="222" height="8" as="geometry"/></mxCell><mxCell id="166" value="&lt;span style=&quot;font-size: 14px; font-style: normal; font-variant-ligatures: normal; font-variant-caps: normal; letter-spacing: normal; orphans: 2; text-align: left; text-indent: 0px; text-transform: none; widows: 2; word-spacing: 0px; -webkit-text-stroke-width: 0px; text-decoration-thickness: initial; text-decoration-style: initial; text-decoration-color: initial; float: none; display: inline !important;&quot;&gt;+&amp;nbsp;&lt;span style=&quot;text-align: center;&quot;&gt;MedicalCardService&lt;/span&gt;&lt;span style=&quot;text-align: center; font-size: 14px;&quot;&gt;&lt;br style=&quot;font-size: 14px;&quot;&gt;&lt;/span&gt;(ClientMongoService)&lt;/span&gt;" style="text;strokeColor=none;fillColor=none;align=left;verticalAlign=top;spacingLeft=4;spacingRight=4;overflow=hidden;rotatable=0;points=[[0,0.5],[1,0.5]];portConstraint=eastwest;whiteSpace=wrap;html=1;fontSize=14;fontFamily=Trebuchet MS;labelBackgroundColor=none;fontColor=default;curveFitting=1;jiggle=2;rounded=1;spacing=2;swimlaneLine=1;strokeOpacity=100;" parent="163" vertex="1"><mxGeometry y="60" width="222" height="46" as="geometry"/></mxCell><mxCell id="167" value="+ GetDiagnosisByPatientIdAsync()" style="text;strokeColor=none;fillColor=none;align=left;verticalAlign=top;spacingLeft=4;spacingRight=4;overflow=hidden;rotatable=0;points=[[0,0.5],[1,0.5]];portConstraint=eastwest;whiteSpace=wrap;html=1;fontSize=14;fontFamily=Trebuchet MS;curveFitting=1;jiggle=2;rounded=1;spacing=2;swimlaneLine=1;strokeOpacity=100;" parent="163" vertex="1"><mxGeometry y="106" width="222" height="32" as="geometry"/></mxCell><mxCell id="168" value="+ RefreshDiagnosisAsync()" style="text;strokeColor=none;fillColor=none;align=left;verticalAlign=top;spacingLeft=4;spacingRight=4;overflow=hidden;rotatable=0;points=[[0,0.5],[1,0.5]];portConstraint=eastwest;whiteSpace=wrap;html=1;fontSize=14;fontFamily=Trebuchet MS;curveFitting=1;jiggle=2;rounded=1;spacing=2;swimlaneLine=1;strokeOpacity=100;" parent="163" vertex="1"><mxGeometry y="138" width="222" height="32" as="geometry"/></mxCell><mxCell id="169" value="+ GetReferralsByPatientIdAsync()" style="text;strokeColor=none;fillColor=none;align=left;verticalAlign=top;spacingLeft=4;spacingRight=4;overflow=hidden;rotatable=0;points=[[0,0.5],[1,0.5]];portConstraint=eastwest;whiteSpace=wrap;html=1;fontSize=14;fontFamily=Trebuchet MS;curveFitting=1;jiggle=2;rounded=1;spacing=2;swimlaneLine=1;strokeOpacity=100;" parent="163" vertex="1"><mxGeometry y="170" width="222" height="32" as="geometry"/></mxCell><mxCell id="171" value="1" style="endArrow=open;html=1;endSize=12;startArrow=diamondThin;startSize=14;startFill=0;edgeStyle=orthogonalEdgeStyle;align=left;verticalAlign=bottom;rounded=0;fontFamily=Trebuchet MS;fontColor=default;entryX=0.334;entryY=1.003;entryDx=0;entryDy=0;exitX=0.5;exitY=0;exitDx=0;exitDy=0;fontSize=14;spacing=2;swimlaneLine=1;strokeOpacity=100;entryPerimeter=0;" parent="1" source="163" target="120" edge="1"><mxGeometry x="-0.9734" y="25" relative="1" as="geometry"><mxPoint x="18.5" y="-1680" as="sourcePoint"/><mxPoint x="18.5" y="-1825" as="targetPoint"/><mxPoint as="offset"/><Array as="points"><mxPoint x="-336" y="-1723"/><mxPoint x="-30" y="-1723"/></Array></mxGeometry></mxCell><mxCell id="172" value="1" style="endArrow=open;html=1;endSize=12;startArrow=diamondThin;startSize=14;startFill=0;edgeStyle=orthogonalEdgeStyle;align=left;verticalAlign=bottom;rounded=0;fontFamily=Trebuchet MS;fontColor=default;entryX=0.684;entryY=1.019;entryDx=0;entryDy=0;exitX=0.5;exitY=0;exitDx=0;exitDy=0;fontSize=14;spacing=2;swimlaneLine=1;strokeOpacity=100;entryPerimeter=0;" parent="1" source="155" target="120" edge="1"><mxGeometry x="-0.9864" y="-10" relative="1" as="geometry"><mxPoint x="-325.9999999999998" y="-1680" as="sourcePoint"/><mxPoint x="-20.51000000000022" y="-1824.856" as="targetPoint"/><mxPoint as="offset"/><Array as="points"><mxPoint x="352" y="-1713"/><mxPoint x="52" y="-1713"/></Array></mxGeometry></mxCell></root></mxGraphModel></diagram></mxfile>